<?xml version="1.0" standalone="no"?>
<!DOCTYPE svg PUBLIC "-//W3C//DTD SVG 20010904//EN"
 "http://www.w3.org/TR/2001/REC-SVG-20010904/DTD/svg10.dtd">
<svg version="1.0" xmlns="http://www.w3.org/2000/svg"
 width="500.000000pt" height="500.000000pt" viewBox="0 0 500.000000 500.000000"
 preserveAspectRatio="xMidYMid meet">

<g transform="translate(0.000000,500.000000) scale(0.100000,-0.100000)"
fill="#000000" stroke="none">
<path d="M0 2500 l0 -2500 2500 0 2500 0 0 2500 0 2500 -2500 0 -2500 0 0
-2500z m1088 1690 l422 0 0 -60 0 -60 -445 0 -445 0 0 -435 0 -435 -60 0 -60
0 0 494 c0 564 -11 508 100 501 36 -3 255 -5 488 -5z m652 -855 l0 -75 -115 0
-115 0 0 -90 0 -90 163 -2 162 -3 3 -67 3 -68 -163 -2 -163 -3 -3 -162 -2
-163 -75 0 -75 0 0 393 c0 217 3 397 7 400 3 4 89 7 190 7 l183 0 0 -75z
m1283 -215 c78 -159 144 -290 147 -290 3 0 61 120 129 268 68 147 130 277 138
290 13 21 20 23 86 20 l72 -3 3 -302 2 -303 -80 0 -80 0 -1 118 0 117 -100
-197 -99 -198 -69 0 -70 0 -103 201 -103 201 -5 -213 -5 -214 -77 -3 -78 -3 0
394 c0 216 3 397 7 400 3 4 37 7 76 7 l69 0 141 -290z m-586 -95 c79 -204 146
-380 149 -393 6 -23 5 -23 -72 -20 l-79 3 -75 212 c-41 117 -77 213 -80 213
-3 0 -39 -96 -80 -212 l-75 -213 -77 -3 c-49 -2 -78 1 -78 7 0 10 287 757 297
774 3 4 10 6 15 5 6 -2 76 -170 155 -373z m-989 -887 l3 -68 -241 0 -240 0 0
63 c0 35 3 67 7 71 4 3 110 5 237 4 l231 -3 3 -67z m705 45 c8 -16 45 -110 82
-211 l69 -183 50 136 51 135 78 0 c70 0 78 -2 73 -17 -32 -96 -243 -627 -251
-630 -6 -2 -60 127 -120 287 -61 159 -112 290 -115 290 -3 0 -54 -131 -115
-290 -60 -160 -114 -289 -120 -287 -7 3 -255 627 -255 644 0 2 35 3 78 3 l79
0 49 -135 49 -135 69 183 c99 259 83 237 166 237 66 0 70 -1 83 -27z m947 -48
l0 -75 -115 0 -115 0 0 -90 0 -90 163 -2 162 -3 3 -67 3 -68 -163 -2 -163 -3
-3 -87 -3 -88 116 0 115 0 0 -75 0 -75 -190 0 -190 0 0 393 c0 217 3 397 7
400 3 4 89 7 190 7 l183 0 0 -75z m383 57 c9 -10 93 -127 187 -261 l170 -244
2 259 3 259 75 0 75 0 3 -397 2 -398 -77 0 -78 0 -182 262 -183 262 0 -167 0
-167 -75 0 -75 0 0 305 0 305 68 0 c54 0 73 -4 85 -18z m-2198 -527 l0 -250
-77 -3 -78 -3 0 256 0 256 78 -3 77 -3 0 -250z m3215 -359 c0 -462 -1 -494
-17 -497 -10 -2 -237 -3 -505 -1 l-488 4 0 59 0 59 445 0 445 0 0 435 0 435
60 0 60 0 0 -494z"/>
</g>
</svg>
