<?xml version="1.0" standalone="no"?>
<!DOCTYPE svg PUBLIC "-//W3C//DTD SVG 20010904//EN"
 "http://www.w3.org/TR/2001/REC-SVG-20010904/DTD/svg10.dtd">
<svg version="1.0" xmlns="http://www.w3.org/2000/svg"
 width="500.000000pt" height="500.000000pt" viewBox="0 0 500.000000 500.000000"
 preserveAspectRatio="xMidYMid meet">

<g transform="translate(0.000000,500.000000) scale(0.100000,-0.100000)"
fill="#000000" stroke="none">
<path d="M2355 4493 c-67 -6 -196 -34 -280 -60 -412 -130 -763 -478 -894 -887
-54 -170 -66 -245 -66 -436 0 -244 33 -393 135 -605 67 -138 133 -234 237
-345 201 -214 452 -353 753 -417 119 -25 401 -25 520 0 454 97 810 375 1001
782 79 170 117 330 126 530 15 374 -118 735 -372 1003 -303 321 -715 475
-1160 435z m415 -93 c603 -123 1050 -671 1050 -1290 0 -341 -130 -663 -369
-912 -188 -197 -425 -327 -701 -384 -63 -14 -131 -18 -260 -18 -156 0 -186 2
-280 26 -278 70 -483 188 -670 385 -539 567 -462 1477 167 1955 177 135 411
231 628 257 118 14 313 6 435 -19z"/>
<path d="M2030 3661 c-77 -24 -142 -76 -174 -140 -22 -44 -72 -238 -151 -586
-43 -188 -43 -242 -1 -305 38 -57 98 -83 180 -78 97 6 113 22 346 351 46 66
90 121 97 124 8 3 39 -19 72 -50 65 -63 88 -71 167 -65 41 4 63 12 91 34 32
26 233 289 233 306 0 7 -95 77 -111 81 -6 1 -56 -59 -112 -133 -56 -74 -109
-136 -119 -138 -9 -2 -33 15 -55 39 -72 78 -162 99 -244 56 -37 -19 -70 -59
-200 -238 -163 -224 -183 -243 -213 -197 -14 22 -10 47 64 362 44 186 87 350
96 366 9 15 31 36 48 46 29 18 57 19 458 19 418 0 427 0 455 -21 15 -12 36
-34 45 -50 18 -31 168 -655 168 -699 0 -17 -8 -29 -25 -37 -33 -15 -45 -3
-152 145 -47 64 -86 117 -88 117 -10 0 -85 -113 -85 -127 1 -10 40 -70 88
-133 95 -126 142 -160 217 -160 75 1 159 57 184 123 20 53 11 112 -69 456 -86
367 -104 418 -170 472 -19 16 -59 38 -88 49 -50 19 -78 20 -490 19 -240 0
-448 -4 -462 -8z"/>
<path d="M760 980 l0 -480 1740 0 1740 0 0 480 0 480 -1740 0 -1740 0 0 -480z
m3450 0 l0 -450 -1715 0 -1715 0 0 450 0 450 1715 0 1715 0 0 -450z"/>
<path d="M850 985 l0 -385 820 0 820 0 0 385 0 385 -820 0 -820 0 0 -385z
m570 110 c0 -23 -3 -25 -50 -25 l-50 0 0 -35 c0 -35 0 -35 45 -35 41 0 45 -2
45 -25 0 -23 -4 -25 -45 -25 l-45 0 0 -45 c0 -43 -1 -45 -30 -45 l-30 0 0 130
0 130 80 0 c79 0 80 0 80 -25z m267 -105 l51 -130 -32 0 c-25 0 -35 6 -44 26
-11 22 -17 25 -60 22 -38 -2 -49 -7 -57 -25 -7 -17 -18 -23 -42 -23 l-33 0 21
53 c12 28 35 87 52 130 29 73 32 77 61 77 30 0 32 -3 83 -130z m195 87 c15
-23 36 -53 46 -65 l19 -24 44 66 c36 54 49 65 72 66 l27 0 0 -130 0 -130 -30
0 -29 0 -3 76 -3 76 -32 -46 c-18 -25 -40 -46 -48 -46 -8 0 -30 21 -48 46
l-32 46 -3 -76 -3 -76 -29 0 -30 0 0 130 0 130 28 0 c21 0 33 -10 54 -43z"/>
<path d="M1587 1002 c-9 -23 -17 -45 -17 -47 0 -3 16 -5 35 -5 40 0 40 1 16
54 l-17 40 -17 -42z"/>
<path d="M2790 1085 c0 -34 1 -35 40 -35 l40 0 0 -95 0 -95 35 0 35 0 0 95 0
95 40 0 c39 0 40 1 40 35 l0 35 -115 0 -115 0 0 -35z"/>
<path d="M3074 990 l41 -131 39 3 c40 3 40 4 60 66 11 34 23 62 27 62 4 0 15
-29 25 -65 l17 -66 41 3 40 3 38 120 c21 66 38 123 38 128 0 4 -17 7 -39 7
l-38 0 -18 -65 c-9 -36 -20 -63 -24 -60 -4 2 -16 31 -26 65 -18 60 -18 60 -56
60 -37 0 -37 0 -60 -67 l-22 -68 -22 65 c-21 65 -22 65 -62 68 l-41 3 42 -131z"/>
<path d="M3480 990 l0 -130 90 0 90 0 0 30 c0 30 -1 30 -55 30 -48 0 -55 2
-55 20 0 17 7 20 50 20 49 0 50 1 50 30 0 29 -1 30 -50 30 -43 0 -50 3 -50 20
0 18 7 20 55 20 54 0 55 0 55 30 l0 30 -90 0 -90 0 0 -130z"/>
<path d="M3710 990 l0 -130 35 0 35 0 0 66 0 67 50 -67 c43 -55 55 -66 80 -66
l30 0 0 130 0 130 -35 0 -35 0 0 -60 c0 -33 -3 -60 -7 -60 -5 0 -28 27 -51 60
-36 50 -49 60 -73 60 l-29 0 0 -130z"/>
</g>
</svg>
